<svg xmlns="http://www.w3.org/2000/svg" id="StackHeap" viewBox="0 -930.4000000000001 1120 930.4000000000001" width="1120" height="calc(98svh - 128px)" overflow="hidden"><g transform="translate(20, 20)"><rect x="320" y="-85" width="200" height="60" stroke="#000" style="fill: rgb(255, 255, 255);"/><text x="330" y="-65" style="fill: rgb(0, 0, 0);">java.lang.String[]</text><g transform="translate(330, -55)"><rect x="0" y="0" width="180" height="20" style="fill: rgb(238, 238, 238); stroke: rgb(0, 0, 0);"/><text x="10" y="15" style="fill: rgb(0, 0, 0);">value: </text></g><rect x="320" y="-135" width="200" height="40" stroke="#000" style="fill: rgb(255, 255, 255);"/><text x="330" y="-115" style="fill: rgb(0, 0, 0);">A</text><g transform="translate(330, -105)"/><rect x="320" y="-205" width="200" height="60" stroke="#000" style="fill: rgb(255, 255, 255);"/><text x="330" y="-185" style="fill: rgb(0, 0, 0);">A$1B</text><g transform="translate(330, -175)"><rect x="0" y="5" width="180" height="20" style="fill: rgb(255, 255, 255); stroke: rgb(0, 0, 0);"/><text x="10" y="20" style="fill: rgb(0, 0, 0);">val$x: 1</text></g></g><g transform="translate(20, 20)"><rect x="0" y="-105" width="200" height="80" stroke="#000" style="fill: rgb(255, 255, 255);"/><text x="10" y="-85" style="fill: rgb(0, 0, 0);">main</text><g transform="translate(10, -75)"><rect x="0" y="0" width="180" height="20" style="fill: rgb(238, 238, 238); stroke: rgb(0, 0, 0);"/><rect x="0" y="20" width="180" height="20" style="fill: rgb(238, 238, 238); stroke: rgb(0, 0, 0);"/><text x="10" y="15" style="fill: rgb(0, 0, 0);">a: </text><text x="10" y="35" style="fill: rgb(0, 0, 0);">args: </text></g><rect x="0" y="-215" width="200" height="100" stroke="#000" style="fill: rgb(255, 255, 255);"/><text x="10" y="-195" style="fill: rgb(0, 0, 0);">bo</text><g transform="translate(10, -185)"><rect x="0" y="0" width="180" height="20" style="fill: rgb(238, 238, 238); stroke: rgb(0, 0, 0);"/><rect x="0" y="20" width="180" height="20" style="fill: rgb(238, 238, 238); stroke: rgb(0, 0, 0);"/><rect x="0" y="40" width="180" height="20" style="fill: rgb(238, 238, 238); stroke: rgb(0, 0, 0);"/><text x="10" y="15" style="fill: rgb(0, 0, 0);">i: 2</text><text x="10" y="35" style="fill: rgb(0, 0, 0);">x: 1</text><text x="10" y="55" style="fill: rgb(0, 0, 0);">this: </text></g><rect x="0" y="-285" width="200" height="60" stroke="#000" style="fill: rgb(255, 255, 255);"/><text x="10" y="-265" style="fill: rgb(0, 0, 0);">go</text><g transform="translate(10, -255)"><rect x="0" y="0" width="180" height="20" style="fill: rgb(238, 238, 238); stroke: rgb(0, 0, 0);"/><text x="10" y="15" style="fill: rgb(0, 0, 0);">this: </text></g></g><g transform="translate(20, 20)"/><defs><marker id="arrow" viewBox="0,0,7,7" refX="3.5" refY="3.5" markerWidth="7" markerHeight="7" orient="auto-start-reverse"><path d="M0,0L0,7L7,3.5" stroke="black"/></marker></defs><path fill="none" stroke="#000" stroke-width="1.5" marker-end="url(#arrow)" d="M210,-45L220.833,-45C231.667,-45,253.333,-45,264.167,-55C275,-65,275,-85,285.833,-95C296.667,-105,318.333,-105,329.167,-105L340,-105"/><path fill="none" stroke="#000" stroke-width="1.5" marker-end="url(#arrow)" d="M210,-25L220.833,-25C231.667,-25,253.333,-25,264.167,-30C275,-35,275,-45,285.833,-50C296.667,-55,318.333,-55,329.167,-55L340,-55"/><path fill="none" stroke="#000" stroke-width="1.5" marker-end="url(#arrow)" d="M210,-115L220.833,-115C231.667,-115,253.333,-115,264.167,-113.333C275,-111.667,275,-108.333,285.833,-106.667C296.667,-105,318.333,-105,329.167,-105L340,-105"/><path fill="none" stroke="#000" stroke-width="1.5" marker-end="url(#arrow)" d="M210,-225L220.833,-225C231.667,-225,253.333,-225,264.167,-216.667C275,-208.333,275,-191.667,285.833,-183.333C296.667,-175,318.333,-175,329.167,-175L340,-175"/></svg>