<svg xmlns="http://www.w3.org/2000/svg" id="StackHeap" viewBox="0 -930.4000000000001 1120 930.4000000000001" width="1120" height="calc(98svh - 128px)" overflow="hidden"><g transform="translate(20, 20)"><rect x="320" y="-85" width="200" height="60" stroke="#000" style="fill: rgb(255, 255, 255);"/><text x="330" y="-65" style="fill: rgb(0, 0, 0);">java.lang.String[]</text><g transform="translate(330, -55)"><rect x="0" y="0" width="180" height="20" style="fill: rgb(238, 238, 238); stroke: rgb(0, 0, 0);"/><text x="10" y="15" style="fill: rgb(0, 0, 0);">value: </text></g><rect x="320" y="-155" width="200" height="60" stroke="#000" style="fill: rgb(255, 255, 255);"/><text x="330" y="-135" style="fill: rgb(0, 0, 0);">A</text><g transform="translate(330, -125)"><rect x="0" y="0" width="180" height="20" style="fill: rgb(238, 238, 238); stroke: rgb(0, 0, 0);"/><text x="10" y="15" style="fill: rgb(0, 0, 0);">x: 1</text></g><rect x="320" y="-225" width="200" height="60" stroke="#000" style="fill: rgb(255, 255, 255);"/><text x="330" y="-205" style="fill: rgb(0, 0, 0);">A$B</text><g transform="translate(330, -195)"><rect x="0" y="5" width="180" height="20" style="fill: rgb(255, 255, 255); stroke: rgb(0, 0, 0);"/><text x="10" y="20" style="fill: rgb(0, 0, 0);">this$0: </text></g></g><g transform="translate(20, 20)"><rect x="0" y="-105" width="200" height="80" stroke="#000" style="fill: rgb(255, 255, 255);"/><text x="10" y="-85" style="fill: rgb(0, 0, 0);">main</text><g transform="translate(10, -75)"><rect x="0" y="0" width="180" height="20" style="fill: rgb(238, 238, 238); stroke: rgb(0, 0, 0);"/><rect x="0" y="20" width="180" height="20" style="fill: rgb(238, 238, 238); stroke: rgb(0, 0, 0);"/><text x="10" y="15" style="fill: rgb(0, 0, 0);">a: </text><text x="10" y="35" style="fill: rgb(0, 0, 0);">args: </text></g><rect x="0" y="-175" width="200" height="60" stroke="#000" style="fill: rgb(255, 255, 255);"/><text x="10" y="-155" style="fill: rgb(0, 0, 0);">bo</text><g transform="translate(10, -145)"><rect x="0" y="0" width="180" height="20" style="fill: rgb(238, 238, 238); stroke: rgb(0, 0, 0);"/><text x="10" y="15" style="fill: rgb(0, 0, 0);">this: </text></g><rect x="0" y="-245" width="200" height="60" stroke="#000" style="fill: rgb(255, 255, 255);"/><text x="10" y="-225" style="fill: rgb(0, 0, 0);">go</text><g transform="translate(10, -215)"><rect x="0" y="0" width="180" height="20" style="fill: rgb(238, 238, 238); stroke: rgb(0, 0, 0);"/><text x="10" y="15" style="fill: rgb(0, 0, 0);">this: </text></g></g><g transform="translate(20, 20)"/><defs><marker id="arrow" viewBox="0,0,7,7" refX="3.5" refY="3.5" markerWidth="7" markerHeight="7" orient="auto-start-reverse"><path d="M0,0L0,7L7,3.5" stroke="black"/></marker></defs><path fill="none" stroke="#000" stroke-width="1.5" marker-end="url(#arrow)" d="M210,-45L220.833,-45C231.667,-45,253.333,-45,264.167,-58.333C275,-71.667,275,-98.333,285.833,-111.667C296.667,-125,318.333,-125,329.167,-125L340,-125"/><path fill="none" stroke="#000" stroke-width="1.5" marker-end="url(#arrow)" d="M210,-25L220.833,-25C231.667,-25,253.333,-25,264.167,-30C275,-35,275,-45,285.833,-50C296.667,-55,318.333,-55,329.167,-55L340,-55"/><path fill="none" stroke="#000" stroke-width="1.5" marker-end="url(#arrow)" d="M210,-115L220.833,-115C231.667,-115,253.333,-115,264.167,-116.667C275,-118.333,275,-121.667,285.833,-123.333C296.667,-125,318.333,-125,329.167,-125L340,-125"/><path fill="none" stroke="#000" stroke-width="1.5" marker-end="url(#arrow)" d="M210,-185L220.833,-185C231.667,-185,253.333,-185,264.167,-186.667C275,-188.333,275,-191.667,285.833,-193.333C296.667,-195,318.333,-195,329.167,-195L340,-195"/><path fill="none" stroke="#000" stroke-width="1.5" marker-end="url(#arrow)" d="M530,-160L538.333,-158.833C546.667,-157.667,563.333,-155.333,571.667,-150.667C580,-146,580,-139,573.333,-134.333C566.667,-129.667,553.333,-127.333,546.667,-126.167L540,-125"/></svg>